<?xml version="1.0" encoding="UTF-8"?><!DOCTYPE svg PUBLIC "-//W3C//DTD SVG 1.1//EN" "http://www.w3.org/Graphics/SVG/1.1/DTD/svg11.dtd"><svg xmlns="http://www.w3.org/2000/svg"><defs><style>.cls-1{fill:#fff;fill-rule:evenodd}</style><style>.cls-1{fill:#fff;fill-rule:evenodd}</style><style>.cls-1{fill:#ffe13e;fill-rule:evenodd}</style></defs><symbol id="icon-figure-footer-copyright" viewBox="0 0 31 30"><path class="cls-1" d="M27.864 30a3.131 3.131 0 0 1-3.135-3.12 3.08 3.08 0 0 1 .281-1.29l-5.064-4.18a5.658 5.658 0 0 1-7.776-.2l-6.116 4.53a3.083 3.083 0 0 1 .217 1.14 3.135 3.135 0 1 1-3.135-3.12 3.164 3.164 0 0 1 1.932.66l6.116-4.53a5.558 5.558 0 0 1-.676-2.67 5.653 5.653 0 0 1 4.833-5.57V6.13a3.135 3.135 0 1 1 1.65 0v5.52A5.625 5.625 0 0 1 21 20.15l5.064 4.18a3.124 3.124 0 1 1 1.8 5.67zM3.136 25.4a1.48 1.48 0 1 0 1.485 1.48 1.482 1.482 0 0 0-1.485-1.48zM17.651 3.12a1.486 1.486 0 1 0-1.485 1.48 1.488 1.488 0 0 0 1.485-1.48zm-1.485 10.11a3.99 3.99 0 1 0 4.008 3.99 4 4 0 0 0-4.008-3.99zm11.7 12.17a1.48 1.48 0 1 0 1.486 1.48 1.482 1.482 0 0 0-1.488-1.48z"/></symbol><symbol id="icon-figure" viewBox="0 0 101.187 108.468"><path class="cls-1" d="M87.937 108.078a10.5 10.5 0 0 1-5.407-16.82L69.762 73.27a18.959 18.959 0 0 1-25.02-7.41l-23.769 9.428a10.543 10.543 0 1 1-2.048-5.138l23.768-9.427a18.948 18.948 0 0 1 20.65-23.186l4.811-17.952a10.519 10.519 0 1 1 5.345 1.432l-4.81 17.953a18.946 18.946 0 0 1 5.59 31.107l12.763 17.985a10.509 10.509 0 1 1 .895 20.016zM11.813 71.647a4.979 4.979 0 1 0 3.525 6.1 4.988 4.988 0 0 0-3.529-6.1zm66.451-59.848a4.984 4.984 0 1 0-6.1 3.52 4.987 4.987 0 0 0 6.096-3.52zm-13.627 31.6a13.433 13.433 0 1 0 9.512 16.456 13.455 13.455 0 0 0-9.512-16.458zm27.3 49.72a4.979 4.979 0 1 0 3.525 6.1 4.987 4.987 0 0 0-3.525-6.1z"/></symbol><symbol id="icon-pin" viewBox="0 0 33 47"><path class="cls-1" d="M16.5 0C7.556 0 0 7.71 0 16.83c0 8.65 14.713 28.73 15.339 29.58a1.438 1.438 0 0 0 2.323 0C18.288 45.56 33 25.48 33 16.83 33 7.71 25.444 0 16.5 0zm0 7.2a9.64 9.64 0 1 1-9.688 9.64A9.672 9.672 0 0 1 16.5 7.2z"/></symbol></svg>